<svg xmlns="http://www.w3.org/2000/svg" viewBox="0 0 1042.18 633.94"><defs><style>.cls-1{fill:#f8f8f8;}</style></defs><title>1st</title><g id="Layer_2" data-name="Layer 2"><path class="cls-1" d="M557.44,83.44c.3,0,.64-.65.72.45.12,3.47-1,6.19-.91,9.66l.47.27c-.34,2.67-.74,5.44-1.11,8.27q-.29,7.84-.42,15.64c.18-.13.35-.18.39.34,0,2.16-.29,5.14-.49,8.23,0,.46,0,.92,0,1.37a.72.72,0,0,0,.36.52c-.08,1.4-.19,2.64-.3,3.79.22,15.24.59,30.72.89,47.5.27,3.56.55,7.12.59,10.54-.06,5-.7,11.48-1,16.4,1.77-.67,2,11.37,3.89,9.06-.2,3.28-.5,8.2,0,8.48,1.43.83,3,3.44,3.45,12.2,0,3.42-.84,8.62-.6,9.84.38,1.92,1.25-4.37,1.63-2.45,1.77-25.32,2.33-49.76,3.6-75.27-.34-8.73,2.2-67.33,3.28-82.36,0-.46,0-.91,0-1.37.5-8.2.85-18.18.54-25.16-.25-3.21-.59-6.47-.91-9.72-.35,1.48-.71,2.86-1,4a48,48,0,0,0,.15-7.84c-.4-7-1.45-3.11-2.76-.48-.61,1.91-1.27-.74-1.95,2.26.14-2.18.2-3.27.33-5.47-.47-.27-.08,6.75-.8,5.2.29-2.1.1-4.47.24-6.66-.7.73-.63,7.57-1.26,7.2-.09-1.19,1.19-6.1.4-6.57a14.4,14.4,0,0,0-.36,3.19c.08-6.74-.51-10.49-1.71-4.39.13-2.13.63-5.13.63-7.39h0c-.08,1.13-.34,3.06-.41,4.1l.24-3.84c-.13.2-.25.42-.38.65-.14,1-.27,1.91-.33,2.91l.15-2.55a23,23,0,0,0-.87,2.14c-.67,3-1.58,5.87-1.68,7.51C559.07,56.92,558.14,70.21,557.44,83.44Z"/><path class="cls-1" d="M844.05,83.39c.3,0,.63-.72.73.47.17,3.74-1,6.71-.83,10.45l.48.29c-.34,2.88-.7,5.88-1.07,8.94-.18,5.66-.29,11.3-.41,16.91.19-.14.35-.2.39.36,0,2.34-.31,5.56-.52,8.9,0,.5,0,1,0,1.48a.73.73,0,0,0,.35.56c-.1,1.52-.21,2.86-.33,4.1.1,16.48.25,33.24.21,51.4.21,3.85.41,7.71.38,11.41-.17,5.48-1,12.43-1.36,17.75,1.78-.7,1.75,12.34,3.67,9.87-.27,3.54-.69,8.87-.22,9.18,1.41.92,2.91,3.77,3.15,13.26,0,3.71-1,9.33-.83,10.65.33,2.08,1.35-4.71,1.68-2.63,2.39-27.39,3.57-53.86,5.29-81.52-.09-4.73.76-23,1.59-42.11s1.65-39.13,2.11-47.3c0-.5,0-1,0-1.48.42-8.92.6-19.77.13-27.34-.32-3.47-.74-7-1.14-10.52-.32,1.63-.64,3.13-.95,4.43.12-3.57.25-7.13-.05-8.51-.61-7.6-1.55-3.32-2.78-.42-.55,2.09-1.28-.76-1.87,2.51.06-2.37.1-3.55.16-5.93-.48-.28.13,7.31-.65,5.65.23-2.28,0-4.84,0-7.21-.68.81-.38,8.21-1,7.83-.12-1.28,1-6.64.2-7.12a16.58,16.58,0,0,0-.26,3.46c-.12-7.3-.83-11.33-1.84-4.69.07-2.31.47-5.57.4-8a0,0,0,0,0,0,0c0,1.21-.26,3.32-.29,4.44l.12-4.16c-.12.22-.24.46-.35.72-.12,1-.22,2.08-.25,3.16,0-.92,0-1.84.08-2.77-.28.69-.55,1.48-.81,2.34-.58,3.28-1.41,6.41-1.46,8.18C845.25,54.71,844.62,69.08,844.05,83.39Z"/><path class="cls-1" d="M635.72,264.29c0-.3-.83-.65.56-.72,4.38-.08,7.84,1.11,12.22,1l.33-.47c3.37.37,6.87.81,10.46,1.22q9.91.38,19.76.6c-.16-.18-.23-.35.42-.38,2.73,0,6.5.35,10.41.59h1.73a.89.89,0,0,0,.65-.35c1.77.1,3.34.22,4.79.35,19.25,0,38.8-.22,60-.32,4.49-.23,9-.47,13.3-.46,6.39.12,14.51.83,20.73,1.19-.87-1.77,14.34-1.89,11.4-3.78,4.14.24,10.36.6,10.71.13,1-1.42,4.3-3,15.36-3.31,4.32,0,10.91.94,12.44.72,2.42-.35-5.54-1.31-3.12-1.66-32-2.08-62.88-2.94-95.13-4.52-11,.24-85.07-3-104.07-4.27l-1.73-.06c-10.37-.6-23-1.08-31.79-.85-4,.21-8.17.51-12.27.79,1.88.37,3.63.74,5.13,1.1a75.32,75.32,0,0,0-9.9-.24c-8.87.31-3.91,1.41-.57,2.76,2.42.63-.92,1.26,2.88,2l-6.91-.4c-.34.47,8.53.16,6.57.87-2.65-.31-5.64-.16-8.41-.32.93.71,9.57.72,9.11,1.35-1.5.08-7.72-1.27-8.3-.48a22.39,22.39,0,0,0,4,.4c-8.53-.17-13.25.38-5.53,1.65-2.69-.16-6.49-.69-9.35-.71h0c1.42.1,3.87.38,5.18.46L572,257.9c.25.13.53.25.83.38,1.21.16,2.42.3,3.68.37l-3.23-.18c.8.3,1.71.6,2.71.89,3.81.71,7.44,1.66,9.51,1.78C602.2,262.34,619,263.43,635.72,264.29Z"/><path class="cls-1" d="M635.48,40.91c0-.3-.91-.56.5-.77,4.43-.54,8,.35,12.48-.15l.3-.5c3.45.06,7,.15,10.71.27l20.12-1c-.18-.17-.27-.34.4-.42,2.77-.19,6.63-.13,10.62-.16l1.75-.11a.93.93,0,0,0,.64-.39c1.8,0,3.41,0,4.9,0,19.57-1.25,39.48-2.37,61.1-3.05,4.57-.33,9.15-.67,13.56-.76,6.53,0,14.84.64,21.19.92-.9-1.77,14.65-1.9,11.64-3.79,4.24.21,10.61.64,11,.17,1.07-1.39,4.43-3,15.79-3.12,4.43.08,11.18,1.15,12.75.95,2.49-.3-5.65-1.41-3.17-1.71-16.41-1.43-32.57-2.23-48.76-2.84s-32.41-.84-49-1c-2.82.12-9.7.29-18.73.36s-20.22.29-31.66.57C670.69,24.89,646.8,26,637,26.27l-1.77.12c-5.33.25-11.23.55-16.91,1s-11.15,1-15.63,1.65c-4.1.72-8.26,1.53-12.4,2.32,2,.14,3.79.29,5.36.45-4.25.29-8.5.56-10.1,1-9,1.5-3.78,1.93-.22,2.81,2.54.3-.77,1.36,3.18,1.58-2.82.18-4.23.32-7.06.52-.29.51,8.66-1,6.77,0-2.73,0-5.74.6-8.56.81,1,.57,9.78-.58,9.4.12-1.51.25-8-.23-8.46.63a24.51,24.51,0,0,0,4.13-.15c-8.65,1-13.35,2.17-5.37,2.38-2.75.21-6.66.2-9.55.55l0,0c1.45-.1,4-.15,5.3-.25l-4.94.38c.27.09.57.18.89.26,1.24,0,2.48,0,3.77-.12l-3.29.25c.85.19,1.81.37,2.86.52,3.95.19,7.74.64,9.85.48C601.34,42.64,618.45,41.71,635.48,40.91Z"/><path class="cls-1" d="M496.54,20.21c.14-.27,0-.69.49-.6,1.6.42,2.37,1.89,4,2.3l.31-.4c1.06.72,2.14,1.51,3.27,2.28,2.27,1,4.56,1.88,6.85,2.74,0-.19.06-.35.31-.31a31,31,0,0,1,3.5,1.7l.62.19a.58.58,0,0,0,.38-.25c.59.29,1.11.58,1.58.85,6.93,2.1,14,4.1,21.67,6.36a37.49,37.49,0,0,1,5,1c2.25.82,4.88,2.37,7,3.39.4-1.72,5.9-.14,5.6-2.2,1.39.68,3.49,1.7,3.8,1.3.94-1.18,2.72-2.23,6.83-1.32,1.55.48,3.55,2.06,4.19,2,1-.06-1.47-1.81-.46-1.86C560.72,32,550,27.79,539,22.77c-4-1-29.36-12.18-35.68-15.44l-.6-.25a59.11,59.11,0,0,0-11.08-4.29c-1.54-.26-3.13-.44-4.72-.64.53.55,1,1.08,1.41,1.58a10.71,10.71,0,0,0-3.47-1.32c-3.31-.7-2,.86-1.3,2.46.62.85-.83,1.06.25,2.13l-2.32-1.13c-.31.4,3,1.09,2,1.52a20.7,20.7,0,0,0-2.89-1.22c.05.75,3.15,1.71,2.73,2.24-.57-.09-2.27-2-2.79-1.36-.1.14.83.59,1.29.81-3-1.09-4.91-1.11-2.64.91a30.16,30.16,0,0,0-3.07-1.69h0c.47.25,1.23.78,1.68,1l-1.64-.79a4.59,4.59,0,0,0,.15.44,6.79,6.79,0,0,0,1.17.74L476.43,8a7.91,7.91,0,0,0,.62,1.12,19.39,19.39,0,0,0,2.7,2.68C485.28,14.71,490.88,17.57,496.54,20.21Z"/><path class="cls-1" d="M465.1,69.36c.3,0,.66-.91.71.62,0,4.81-1.22,8.61-1.2,13.42l.47.37c-.44,3.7-.9,7.56-1.36,11.49q-.53,10.92-.88,21.73c.19-.18.36-.26.38.46,0,3-.44,7.15-.74,11.44,0,.64,0,1.28,0,1.9a1,1,0,0,0,.34.72c-.12,1.94-.27,3.67-.41,5.27-.16,21.15-.33,42.65-.51,65.94.17,4.94.35,9.88.28,14.63-.21,7-1,16-1.47,22.78,1.78-.95,1.68,15.77,3.62,12.54-.3,4.55-.74,11.4-.27,11.78,1.4,1.14,2.89,4.74,3.09,16.89-.06,4.75-1.09,12-.89,13.68.32,2.66,1.38-6.08,1.7-3.43,2.53-35.17,3.81-69.11,5.83-104.56-.09-12.11,4.18-93.51,5.7-114.4l.09-1.9c.74-11.4,1.39-25.25,1.28-34.94-.16-4.45-.39-9-.62-13.49-.4,2.07-.79,4-1.17,5.64a92.48,92.48,0,0,0,.38-10.89c-.19-9.75-1.37-4.3-2.75-.63-.67,2.66-1.25-1-2,3.16l.5-7.6c-.47-.37-.28,9.38-1,7.22.36-2.91.24-6.2.44-9.24-.72,1-.84,10.51-1.47,10-.06-1.65,1.37-8.49.59-9.12-.16-.13-.35,2.91-.45,4.43,0-1.17.05-2.28.07-3.3V9.11a14.42,14.42,0,0,1,.26-2.75,14.15,14.15,0,0,1,.57-2c.38-.91.38-1.18-.29-.58a6,6,0,0,0-1.2,1.79,13.94,13.94,0,0,0-1,3.52,14.86,14.86,0,0,1,.66-3.35,8.38,8.38,0,0,1,2.19-3.49A5.41,5.41,0,0,1,477.8.83c.48,0,.91,0,1,.17s-.2.43-.93.93c0,0,0,0,0-.05l.48-.36.31-.28c.11-.15.14-.29,0-.37a2.33,2.33,0,0,0-1.46-.09,5.3,5.3,0,0,0-1.88.72,5.54,5.54,0,0,0-1.45,1.28,5.73,5.73,0,0,1,3.11-2,3.61,3.61,0,0,1,1.38-.1c.34.08.47.24-.08.64.28-.39.29-.68.1-.9a2.91,2.91,0,0,0-2,.08,5.9,5.9,0,0,0-2.52,1.6A5.81,5.81,0,0,1,478,.14a5.07,5.07,0,0,0-4.1.88,9.9,9.9,0,0,0-3.16,4.38,23.37,23.37,0,0,0-1.09,4.21,39.52,39.52,0,0,0-.72,4.53C467.51,32.52,466.19,51,465.1,69.36Z"/><path class="cls-1" d="M488.9,295.25c-.09-.29-.55-.45,0-.78,1.66-.89,3.41-.45,5.07-1.36l0-.5,4.45-.87c2.63-1.05,5.23-2.12,7.79-3.27-.14-.15-.23-.29,0-.45a38.62,38.62,0,0,1,4.2-1.48l.65-.35a.56.56,0,0,0,.12-.45c.71-.26,1.35-.45,1.95-.63,7.31-3.84,14.63-7.95,22.53-12.39a48.43,48.43,0,0,1,4.79-3.18c2.43-1.22,5.75-2.27,8.21-3.25-1.05-1.43,4.54-4.74,2.66-5.84,1.64-.66,4.08-1.66,4-2.17-.22-1.51.35-3.58,4.25-6.27,1.58-.93,4.38-1.5,4.85-2,.73-.84-2.58,0-1.85-.83-12.54,5-24.26,10.68-36.88,15.76-2,1.22-10.22,4.83-18.95,8.3s-18,6.84-21.79,8l-.68.26a81.94,81.94,0,0,0-12.42,5.1c-1.47.94-3,2-4.43,3,.85,0,1.65,0,2.35.1a13.88,13.88,0,0,0-3.89,1.58c-3.31,1.88-1,2,.72,2.69,1.15.16.07,1.36,1.78,1.33l-2.81.88c0,.51,3.35-1.39,2.84-.37A27.72,27.72,0,0,0,465,297c.59.5,3.94-1.06,4-.39-.55.36-3.41.21-3.37,1.06,0,.17,1.14-.18,1.7-.36-3.36,1.39-5,2.76-1.59,2.55-1.09.35-2.74.53-3.86,1h0c.58-.16,1.63-.33,2.17-.5l-2,.61a3.1,3.1,0,0,0,.45.21,9.25,9.25,0,0,0,1.55-.31l-1.31.4a8,8,0,0,0,1.35.36,24,24,0,0,0,4.29-.05C475.27,299.7,482.15,297.61,488.9,295.25Z"/><path class="cls-1" d="M512.23,90.16c.2,0,.46-.75.46.51-.1,3.94-1,7-1.11,11l.31.3c-.37,3-.75,6.19-1.14,9.41-.37,6-.67,11.89-.94,17.8.12-.15.24-.21.25.38-.07,2.46-.39,5.85-.64,9.37,0,.53,0,1.05,0,1.56s.16.52.22.58c-.12,1.59-.23,3-.33,4.32-.36,17.34-.48,34.94-.52,54,.13,4,.29,8.08.28,12-.11,5.75-.54,13.08-.77,18.68,1.17-.82,1.35,12.85,2.59,10.16-.14,3.73-.31,9.34,0,9.63,1,.89,2,3.8,2.38,13.71.06,3.88-.46,9.83-.29,11.2.27,2.16.79-5,1.06-2.85.87-28.8,1.32-56.55,2.63-85.54,0-4.94.66-24,1.76-44s2.57-40.89,3.34-49.41l.1-1.55c.76-9.31,1.58-20.61,1.82-28.52,0-3.63,0-7.34,0-11-.34,1.68-.67,3.24-1,4.59.35-3.72.71-7.44.63-8.89.21-8-.76-3.53-1.81-.55-.54,2.16-.8-.85-1.46,2.55l.6-6.2c-.3-.31-.52,7.66-.9,5.89.34-2.38.38-5.07.62-7.55-.52.82-.93,8.58-1.33,8.16,0-1.35,1.21-6.92.71-7.45a27.58,27.58,0,0,0-.46,3.62c.14-1.93.21-3.58.27-5a11.25,11.25,0,0,1,.3-2.17,7.75,7.75,0,0,1,.6-1.58c.39-.71.44-.91-.13-.46a4.58,4.58,0,0,0-1,1.45,10.85,10.85,0,0,0-.83,2.75,10.75,10.75,0,0,1,.6-2.61,5.66,5.66,0,0,1,2-2.73,3,3,0,0,1,1.38-.56,1.21,1.21,0,0,1,.84.15c.14.13.17.28-.29.65-.22.18-.62.48-1,.82l.44.81.22.41c.05.12.2.32.12.3l-.38.3,0,0c.1-.12.29-.17.34-.36l-.48-.88-.25-.45-.06-.11s0,0,0,0l.08-.07c.45-.41.82-.68,1-.88.39-.37.22-.53,0-.64a1.87,1.87,0,0,0-1.25.09,4.14,4.14,0,0,0-1.31.86,4.09,4.09,0,0,1,1.35-.9,2,2,0,0,1,1.1-.12c.25.06.43.17.3.38a1.62,1.62,0,0,1-.18.2l-.4.32c-.18.14-.35.27-.58.47l-.17.14-.08.07a2.24,2.24,0,0,0,.11.22l.52.93-.36-.62-.18-.32-.1-.17c0-.06-.07-.11,0-.11l.39-.46.36-.38a3.25,3.25,0,0,0,.26-.3c.6-.52.22-.63-.21-.69a2.37,2.37,0,0,0-.9.16,4.06,4.06,0,0,0-1.11.66c1.27-1.08,2.67-1,2.45-.55.05-.28-.19-.46-.57-.54a2.64,2.64,0,0,0-1.66.32,5.89,5.89,0,0,0-1.68,1.43,6.32,6.32,0,0,0-.64.92,8.41,8.41,0,0,0-.52,1,16.57,16.57,0,0,0-.89,3.24c-.31,1.47-.56,2.75-.65,3.68C514.82,60,513.41,75.11,512.23,90.16Z"/><path class="cls-1" d="M487.91,161.08c0-.2-.37-.36.12-.52,1.58-.41,3,.08,4.53-.38l.06-.34,3.88-.17c2.38-.47,4.71-1,7-1.52-.08-.11-.13-.21.09-.29.95-.27,2.31-.4,3.69-.62l.59-.16a.38.38,0,0,0,.18-.29c.62-.1,1.18-.17,1.7-.22a177.17,177.17,0,0,1,20.8-4.54,42.54,42.54,0,0,1,4.7-.95c2.28-.2,5.21-.06,7.44,0-.36-1.16,5.11-1.75,4-2.91,1.5,0,3.75.07,3.86-.25.36-1,1.52-2.11,5.51-2.65,1.56-.12,3.95.32,4.5.13.87-.3-2-.72-1.14-1a279.8,279.8,0,0,0-34.77.76c-1,.2-3.46.53-6.69,1s-7.21,1.17-11.2,1.93-8,1.55-11.45,2.16-6.29,1-7.94,1.18l-.6.1c-3.6.44-7.9.89-10.89,1.38l-2.08.47-2.11.42c.65.21,1.25.42,1.77.62a17.62,17.62,0,0,0-3.43,0c-3.1.26-1.44,1-.28,1.84.86.41-.37.86,1,1.29-1-.07-1.5-.13-2.51-.22-.14.31,3.11.08,2.38.55a30.69,30.69,0,0,0-3.07-.18c.3.46,3.49.46,3.31.84-.56.1-2.81-.8-3.06-.27-.05.11,1,.21,1.48.25-.78,0-1.49,0-2.06,0a5.5,5.5,0,0,0-1.25.13c-.5.16-.25.48,1.18,1-1-.14-2.42-.57-3.5-.64h0c.53.09,1.44.33,1.93.4l-1.82-.27a3.63,3.63,0,0,0,.28.27,12.05,12.05,0,0,0,1.38.31l-1.22-.18a9.07,9.07,0,0,0,1,.64,17.51,17.51,0,0,0,3.58,1.26A78.72,78.72,0,0,0,487.91,161.08Z"/><path class="cls-1" d="M809.43,22.45c.13-.27.06-.64.44-.62,1.11.2,1.48,1.49,2.6,1.69l.28-.41,2.11,1.71q2.31.91,4.67,1.61c0-.18.07-.34.25-.34a13.79,13.79,0,0,1,2.35,1.06l.43.08a.75.75,0,0,0,.29-.3c.4.18.74.36,1.06.54,4.76.84,9.63,1.44,14.85,2.08a18.35,18.35,0,0,1,3.4,0,37.34,37.34,0,0,1,4.7,1.79c.34-1.7,4.08-1.36,3.93-3.25.94.35,2.35.88,2.57.43a4.86,4.86,0,0,1,4.73-2.71c1,.12,2.38,1.2,2.82,1,.69-.27-1-1.4-.27-1.67-7.18-2.87-14.36-4.57-21.57-7.17-1.35-.08-6.2-1.52-11.12-3.35a97,97,0,0,1-11.82-5.12l-.37-.15a35.24,35.24,0,0,0-3.44-1.62,17.67,17.67,0,0,0-3.38-1.07l-3.09-.17c.23.46.43.91.6,1.33-.81-.51-1.62-1-2.1-.94-2.11-.45-1.62.89-1.53,2.33.24.73-.86,1-.32,1.93-.57-.36-.86-.54-1.42-.93-.33.39,1.91.86,1.1,1.31-.47-.48-1.25-.62-1.81-1-.08.34.39.72.82,1.06s.85.64.64.89c-.2,0-.5-.46-.82-.81s-.63-.64-.9-.33c-.11.13.46.52.74.72-1.91-.93-3.36-.94-2.17.88a14,14,0,0,0-1.88-1.51h0c.29.22.73.7,1,.89l-1-.71c0,.13,0,.27,0,.4a3.76,3.76,0,0,0,.7.68l-.69-.48a6.06,6.06,0,0,0,.18,1,11.08,11.08,0,0,0,1.41,2.48A75,75,0,0,0,809.43,22.45Z"/><path class="cls-1" d="M788.58,86.59c.3,0,.63-1,.73.62.16,5-1,9-.9,14l.48.38c-.34,3.86-.73,7.88-1.15,12q-.32,11.37-.64,22.63c.19-.19.36-.27.38.48,0,3.12-.4,7.44-.68,11.91l0,2a1.05,1.05,0,0,0,.34.74c-.13,2-.28,3.82-.42,5.49-.29,22-.69,44.42-1.6,68.69,0,5.14,0,10.3-.23,15.24-.46,7.32-1.69,16.59-2.43,23.69,1.83-.92.88,16.5,3,13.23-.51,4.74-1.38,11.85-.93,12.27,1.32,1.26,2.65,5.1,2,17.81-.38,4.95-1.9,12.45-1.81,14.22.14,2.8,1.79-6.26,1.93-3.47,2.5-18.29,4.42-36.32,6.16-54.39s3.16-36.2,4.59-54.74c.09-3.16.45-10.87,1.05-21s1.2-22.63,1.88-35.44c1.3-25.62,2.2-52.42,2.71-63.37l0-2c.2-6,.38-12.59.41-19S803.41,56,803.17,51c-.36-4.64-.81-9.37-1.24-14.07-.3,2.19-.61,4.2-.91,6,.08-4.78.18-9.55-.13-11.39-.71-10.17-1.59-4.41-2.78-.51-.53,2.81-1.28-1-1.85,3.4,0-3.17.06-4.76.1-7.95-.48-.36.21,9.79-.59,7.58.22-3.05-.09-6.48,0-9.65-.66,1.09-.28,11-1,10.5-.11-1.71.93-8.91.12-9.53a30.66,30.66,0,0,0-.21,4.64c-.22-9.78-1-15.15-1.9-6.24,0-3.1.39-7.47.29-10.74,0,0,0,0,0,0,0,1.63-.2,4.45-.22,6l.06-5.57c-.12.29-.23.62-.34,1-.11,1.39-.19,2.78-.21,4.23,0-1.23,0-2.47,0-3.7-.27.92-.53,2-.77,3.15-.54,4.39-1.32,8.59-1.35,11C789.7,48.18,789.14,67.43,788.58,86.59Z"/><path class="cls-1" d="M790.82,6a3.47,3.47,0,0,1,.68.31c.2.25-.79,0-.59.26l.45.19c-.24,0-.54.07-.81.13a2.18,2.18,0,0,0,.1.83,2.15,2.15,0,0,1,.39.13c.09.14-.11.21-.2.37l.06.09.37.12a.81.81,0,0,1-.16.16A10.48,10.48,0,0,0,794,11a11.3,11.3,0,0,1,1.08.41c.18.16-.15.33-.21.47,1.73,0,2.57.38,4.32.36,0,.07-.1.19.39.2a31.52,31.52,0,0,1,4,.3c.2.07-.42.18-.12.2.47,0,1-.09,1.51,0,.53-.51-.09-.85-.06-1-.38-.07-.63-.2-.78-.19s-.09-.15.07-.09h0c.1,0,0-.06-.57-.38-.34-.2-.76-.44-1.15-.69l-.76-.37c.06,0,.12,0-.14-.19a16.41,16.41,0,0,0-2.36-1.35c-.46-.21-1.1-.65-1.62-.84l.16-.09c-.43-.25.09.27-.59-.16.21,0,0-.15.06-.19-.6-.33-.37,0-.94-.28-.11-.11.91.29.2-.13-.14-.09-.2,0-.24,0a2.42,2.42,0,0,0-1.57-1.09c.07-.06.44,0,.39-.09h0s-.24,0-.27,0l.13-.1-.31-.16a.5.5,0,0,0-.24,0l.09-.07-.71-.33a8.19,8.19,0,0,0-1.35-.4A3.49,3.49,0,0,0,790.82,6Z"/><path class="cls-1" d="M805.47,299.38c-.17-.25-.62-.29-.3-.71,1.08-1.19,2.71-1.18,3.79-2.38l-.21-.46,3.45-1.78c1.86-1.54,3.67-3.11,5.45-4.72-.16-.1-.29-.21-.14-.41a27.33,27.33,0,0,1,3-2.27l.44-.46a.55.55,0,0,0-.06-.44c.52-.39,1-.71,1.44-1,4.88-5.1,9.71-10.42,15-16.14a35.7,35.7,0,0,1,3-3.9c1.67-1.61,4.16-3.25,5.94-4.64-1.37-1.12,2.33-5.28.36-5.92,1.19-.93,3-2.33,2.73-2.78-.67-1.35-.86-3.39,1.62-6.62,1.06-1.16,3.29-2.23,3.52-2.81.36-.92-2.21.51-1.86-.41-9.19,7-17.37,14.62-26.44,21.94-1.3,1.54-7.1,6.58-13.32,11.68S800,285.42,797.22,287.38l-.48.4a57.76,57.76,0,0,0-8.68,7.54c-.91,1.21-1.79,2.5-2.68,3.77.72-.19,1.4-.34,2-.45a10.33,10.33,0,0,0-2.71,2.35c-2.11,2.52-.14,2.12,1.55,2.32,1-.13.54,1.23,2,.81l-2,1.46c.2.46,2.31-2.06,2.24-1a21.18,21.18,0,0,0-2.38,1.91c.68.32,2.93-1.89,3.2-1.28-.34.45-2.79,1-2.45,1.76.06.15.88-.43,1.29-.73-2.32,2.07-3.21,3.71-.42,2.72a26.33,26.33,0,0,0-2.87,1.85h0c.43-.29,1.24-.69,1.63-1l-1.43,1c.14,0,.29.06.45.09a6.84,6.84,0,0,0,1.18-.66l-1,.69a8.69,8.69,0,0,0,1.25,0,19,19,0,0,0,3.58-1C795.58,306.56,800.62,303.07,805.47,299.38Z"/><path class="cls-1" d="M820.88,90.31c.2,0,.46-.76.45.52-.13,4-1,7.2-1.13,11.23l.3.31c-.37,3.09-.76,6.32-1.16,9.61-.36,6.09-.71,12.15-1,18.19.13-.15.25-.22.25.38-.06,2.52-.4,6-.64,9.58,0,.54,0,1.07,0,1.59s.16.53.23.6c-.1,1.63-.22,3.07-.33,4.41-.34,17.71-.41,35.7-.34,55.18.17,4.13.35,8.25.36,12.22-.06,5.87-.44,13.36-.62,19.09,1.17-.85,1.46,13.11,2.68,10.35-.11,3.81-.21,9.54.11,9.84,1,.9,2,3.85,2.53,14,.11,4-.34,10-.16,11.44.3,2.2.73-5.13,1-2.93.23-14.71.47-29.15.7-43.61s.6-28.94,1.2-43.74c-.06-5,.54-24.57,1.64-45s2.62-41.75,3.4-50.45c0-.53.07-1,.11-1.58.79-9.5,1.68-21,2-29.12.07-3.71.09-7.48.11-11.25-.35,1.72-.68,3.31-1,4.69.38-3.8.75-7.6.68-9.07.3-8.14-.72-3.61-1.81-.57-.55,2.2-.8-.88-1.47,2.6l.65-6.33c-.3-.32-.59,7.82-1,6,.35-2.43.43-5.18.69-7.71-.53.84-1,8.76-1.41,8.33,0-1.38,1.28-7.06.79-7.6a27.48,27.48,0,0,0-.5,3.69c.6-7.82.5-12.17-.78-5.1.25-2.48.83-6,1-8.57v0c-.17,1.3-.45,3.54-.61,4.74l.47-4.45c-.1.23-.2.49-.3.76-.18,1.1-.34,2.21-.46,3.37l.31-3c-.25.72-.51,1.55-.76,2.47-.69,3.48-1.53,6.8-1.73,8.7C823.65,59.51,822.1,74.93,820.88,90.31Z"/><path class="cls-1" d="M810.55,161.58c0-.2-.25-.35,0-.5.75-.39,1.55.09,2.3-.3l0-.34c.65,0,1.34,0,2-.06,1.19-.38,2.37-.79,3.52-1.26-.07-.1-.12-.2,0-.28a11.34,11.34,0,0,1,1.9-.51l.29-.15a.49.49,0,0,0,0-.28c.32-.09.61-.15.88-.2,3.25-1.71,6.45-3.63,9.86-5.73a13.94,13.94,0,0,1,2-1.59,34.82,34.82,0,0,1,3.6-1.35c-.6-1,1.73-2.62.75-3.46.71-.27,1.76-.71,1.68-1-.24-1-.17-2.22,1.38-3.6.64-.45,1.89-.59,2-.88.26-.47-1.2-.2-.95-.66-5.31,2.14-10.22,4.68-15.65,6.67a50.08,50.08,0,0,1-8.14,3.33,85.07,85.07,0,0,1-9.5,2.69l-.3.09a23.3,23.3,0,0,0-5.44,1.77c-.65.42-1.3.89-2,1.36a10.26,10.26,0,0,1,1,.36,3.92,3.92,0,0,0-1.72.52c-1.48.8-.48,1.19.29,1.84.51.25,0,.89.78,1.08l-1.26.21c0,.34,1.51-.47,1.27.13a8.05,8.05,0,0,0-1.51.35c.26.41,1.77-.17,1.78.26-.25.17-1.53-.3-1.52.26,0,.11.51,0,.76,0-1.51.47-2.28,1.15-.74,1.45a10.47,10.47,0,0,0-1.75.17h0c.27,0,.74,0,1-.05l-.89.14a1.7,1.7,0,0,0,.19.19,2.35,2.35,0,0,0,.7,0l-.59.09a4.51,4.51,0,0,0,.6.41,8.46,8.46,0,0,0,1.94.51A79.84,79.84,0,0,0,810.55,161.58Z"/><path class="cls-1" d="M783.39,309.36c0,.17,3.29-2.55-1.76,1.84-8,6.87-15.39,12.8-23,18.51s-15.26,11.21-24.13,16.81l-1.19,1c-13.84,8.65-28.49,17.28-43.67,25.67-27.88,15.64-56.37,29.84-85.13,43.14.77-.29,1.15-.4-1.71.94-12,5.49-28.6,13.45-45.17,22.79-2.46,1.38-4.89,2.79-7.28,4.18-1.85,1.12-2.29,1.46-2.58,1.66-7.41,4.35-13.91,8.38-19.88,12.2a314.22,314.22,0,0,0-28.62,20.45c-9.11,7.48-17.7,15.87-24.67,25.66l-2.51,3.73c-.43.62-.79,1.28-1.19,1.92l-.77,1.3c-.33.55-.68,1.1-1,1.64l-3.5,6.58-.88,1.65-.05.1.1,0,.22-.08.43-.16.87-.32,3.46-1.27,6.72-2.58c.69-.26,1.36-.54,2.05-.78l2.09-.68,4.19-1.37c1.39-.46,2.78-.93,4.21-1.29a185,185,0,0,1,34.82-6.58,192.73,192.73,0,0,1,71.67,6.85A190.54,190.54,0,0,1,630,526.65c11.1,5.74,21.85,12.41,32.66,19.23,18.31,11.47,36.64,23.34,56,31.42a186.73,186.73,0,0,0,98.81,12.92c-.59,0,0-.15,1.56-.41l6.87-1.37c1.47-.29,3.07-.71,4.78-1.09s3.51-.81,5.35-1.33,3.75-1,5.66-1.57,3.85-1.14,5.75-1.72l19.47-6.09c4.55-1.39,6.31-1.95,2.72-1.16,9.68-2.67,22.12-5.29,32.48-5.28A79.69,79.69,0,0,1,921,572.27a44.23,44.23,0,0,1,5.88,1.3,92.86,92.86,0,0,1,11.93,4.28c5.17,2.19,11.57,5.39,19.51,9.71l29.24,16c18.27,10.1,46.17,25.88,52.64,29.38,10.2,5.5-23.47-13.48-13.27-8l-50.58-28.25c-8.42-4.67-16.72-9.4-25.23-14s-17.37-8.8-26.86-11.53A78.27,78.27,0,0,0,895,568.55l-1.83.15-1.82.23c-1.21.17-2.43.3-3.63.49-2.4.42-4.81.8-7.17,1.34-4.76,1-9.42,2.21-14,3.5-9.25,2.61-18.31,5.55-27.43,8a181.51,181.51,0,0,1-83.84,2.83A182.43,182.43,0,0,1,728,577.43a198.37,198.37,0,0,1-25.8-11.79c-16.74-9-32.61-19.92-49.14-30.11-8.27-5.09-16.71-10-25.51-14.39-2.19-1.1-4.44-2.11-6.66-3.17s-4.54-1.92-6.81-2.89c-1.15-.46-2.27-1-3.43-1.4l-3.49-1.24-3.49-1.25-1.75-.63-1.77-.53c-3.24-.94-7.6-2.35-13.11-3.58-1.37-.32-2.8-.69-4.31-1l-4.73-.89c-1.64-.3-3.33-.66-5.1-.94l-5.5-.77c-3.77-.61-7.81-.84-12-1.24-1.06-.12-2.14-.16-3.23-.2l-3.31-.12c-2.24-.08-4.52-.23-6.85-.16l-7.15.08c-2.43.11-4.9.28-7.42.43s-5.07.43-7.66.71l-3.92.43c-1.32.13-2.63.4-4,.6l-4,.64c-1.35.22-2.71.42-4.06.74l-8.23,1.77-8.34,2.23c-2.8.81-5.59,1.78-8.42,2.68-.71.24-1.43.44-2.13.71l-2,.77-.45.18-.22.09c-.06,0,0-.12.06-.17a3.3,3.3,0,0,1,.23-.41l.83-1.38c.37-.65.81-1.26,1.23-1.88.85-1.24,1.65-2.52,2.59-3.72,1.79-2.45,3.72-4.83,5.76-7.15,8.16-9.31,18.08-17.54,28.7-25.16,5.31-3.81,10.82-7.48,16.41-11.1s11.27-7.15,17-10.59c11.53-6.88,23.36-13.39,35.35-19.45q9-4.56,18.09-8.73c6.07-2.8,12.15-5.6,18.13-8.42,24-11.28,46.88-22.9,67.68-34.38s39.51-22.69,55.32-32.88c7.91-5.17,14.88-10.3,21-15s11.44-9,15.89-12.7c2.15-1.81,4.3-3.59,6.42-5.42,9.59-8.18,19.47-17,29.28-26.3s19.67-18.77,28.82-28.74a263.07,263.07,0,0,0,24.55-30.8c3.5-5.23,6.8-10.4,9.64-15.55.73-1.28,1.45-2.54,2.16-3.8s1.43-2.48,2.05-3.75c1.29-2.5,2.54-5,3.77-7.33.57-1.09,1.09-2.2,1.59-3.33l1.54-3.36,1.53-3.37c.52-1.12,1-2.25,1.47-3.4,1.83-4.61,3.79-9.17,5.33-13.9a237.93,237.93,0,0,0,8.14-28.69c-.49,2.26-1.14,4.43-1.69,6.58s-1.08,4.26-1.71,6.27L899.3,161c-.62,1.89-1.14,3.75-1.83,5.47.21-.59.44-1.18.63-1.78l.56-1.81c.37-1.21.73-2.41,1.1-3.61.7-2.4,1.52-4.74,2.07-7.11,1.18-4.71,2.41-9.21,3.17-13.43.42-2.09.82-4.09,1.2-6s.56-3.67.82-5.31c.46-3.26.94-5.94,1.06-7.88,2.12-21.42,1.23-26.12,1.22-23.33-.06.69-.07,1.85-.17,3.32s-.27,3.27-.42,5.22-.28,4.09-.53,6.24-.55,4.31-.8,6.35a36.78,36.78,0,0,1-.67,4.6c-.11.44-.12.12-.16,0s-.28.4-1.77,9.54c.51-3.3,1-6.19,1.36-8.87.24-1.34.35-2.64.49-3.91s.26-2.52.39-3.76c.62-5,.81-10,1.15-16.71,0-.38-.12,2-.34,5.64-.1,1.82-.22,4-.35,6.21s-.48,4.64-.72,7c-.12,1.16-.24,2.3-.35,3.41s-.32,2.16-.46,3.16c-.31,2-.58,3.75-.79,5.08-.42,2.64-.6,3.55-.31,1.25.48-3.18,1-6.45,1.47-9.79s.7-6.75,1-10.17c.18-3.43.37-6.88.55-10.31s.07-6.83.12-10.16c-.07,1.15-.13,4.62-.19,9.14-.13,2.26-.28,4.77-.43,7.4-.08,1.31-.16,2.65-.24,4s-.28,2.69-.42,4c-.3,2.66-.53,5.29-.85,7.68s-.72,4.57-1,6.39-.51,3.28-.7,4.21-.32,1.34-.29,1.09c.63-3.54,2.21-12.79,3-21.55.29-2.18.33-4.35.48-6.37s.22-3.91.31-5.57c.12-3.31,0-5.69,0-6.34,0-.12,0,.61-.05,1.9s0,3.11-.14,5.16-.25,4.32-.38,6.5c-.07,1.09-.11,2.16-.19,3.16s-.2,1.93-.29,2.76c.11-1.28.29-2.54.35-3.78l.2-3.68q.18-3.61.35-7c0-2.24,0-4.38,0-6.42,0-1,0-2,0-3s0-1.91,0-2.82c-.17-3.65-.31-6.85-.43-9.52s-.44-4.79-.59-6.31c-.31-3-.42-3.62-.28-1.12.08,1.25.22,3.28.41,6.15s.2,6.62.36,11.29c-.12-3.24-.25-6.82-.39-10.58-.3-3.75-.63-7.68-.95-11.63-.51-3.94-1-7.9-1.52-11.72s-1.3-7.47-1.88-10.85v.1c.56,3.38,1.41,8,2.09,12.53.29,2.28.57,4.55.84,6.64s.52,4,.62,5.58c-.12-1.94-.43-3.87-.66-5.8l-.75-5.81c-.2-1.94-.61-3.85-.92-5.77l-1-5.77c.18,1.22.38,2.6.59,4,1.07,5.72,1.68,11.54,2.45,17.57-.33-2.56-.65-5.13-1-7.69L904.1,54l-.66-3.83c.67,3.82,1,8.27,1.6,13.12a248.76,248.76,0,0,1,.52,45.89c-.18,2.5-.5,5-.75,7.49l-.4,3.74c-.14,1.25-.37,2.48-.55,3.72l-1.15,7.44-1.5,7.38-.75,3.69-.94,3.65c-.62,2.43-1.22,4.87-1.87,7.29l-2.21,7.2c-.38,1.2-.71,2.41-1.13,3.59L893,167.87a248.39,248.39,0,0,1-11.73,27.76l-3.48,6.69c-.59,1.11-1.14,2.24-1.77,3.33l-1.89,3.27-3.78,6.53c-1.34,2.13-2.61,4.29-4,6.38-10.88,16.92-24.21,32.11-38.5,46.35S798.68,296.22,783.39,309.36Z"/><path class="cls-1" d="M739.58,466c0-.1-1,.49.42-.59,1.14-.86,2.28-1.61,3.32-2.41l3.13-2.33c2.07-1.53,4.14-3.06,6.37-4.85l.23-.38c3.52-2.67,7.28-5.35,10.86-8.4C770.47,441.4,777.16,436,783.3,430c-.2.11-.32.14.29-.45,2.58-2.47,6.28-5.76,10-9.27.52-.55,1-1.09,1.57-1.63a3.05,3.05,0,0,0,.49-.68l4.43-4.44a480.58,480.58,0,0,0,49.61-60.39c3.15-4.92,6.3-9.84,9.39-14.54,2.39-3.41,4.75-7.52,7.24-11.52s5-8,7-11.49c-1.09.8,8.1-16.7,5.7-13.5a116.89,116.89,0,0,0,6.18-12.46,20.92,20.92,0,0,1,1.47-4.8c.54-1.39,1.25-3.15,2.21-5.37.46-1.12,1.05-2.32,1.58-3.71l1.78-4.56c2.09-5.18,5.6-13,6.27-14.87,1-2.93-3.12,6.55-2.07,3.63l-6,14.27-.75,1.78c-.26.58-.55,1.16-.83,1.74l-1.67,3.46-3.33,6.93c-1.11,2.3-2.21,4.6-3.32,6.91s-2.41,4.49-3.62,6.74l-7.3,13.44-7.94,13.09-2,3.28-1,1.64c-.34.54-.71,1.07-1.06,1.6l-4.3,6.38-4.32,6.4-2.16,3.2c-.72,1.08-1.53,2.08-2.29,3.13l-9.33,12.49c-.53.72-1.21,1.72-2.14,2.89l-3.32,4.1-9.31,11.44c-3.72,4.31-8,9-12.52,14.05-1.14,1.24-2.24,2.56-3.46,3.79l-3.68,3.74L793.26,414c-1.28,1.28-2.52,2.6-3.83,3.85l-4,3.69-7.88,7.32-3.87,3.57-3.93,3.34-7.52,6.39c-4.77,4.19-9.46,7.67-13.41,10.76s-7.26,5.67-9.76,7.48l-1.83,1.3-8.58,6.07L724.26,471,722,472.54,719.77,474l-16.56,10.9-13.43,8.41,5.94-3.16c-4.67,2.7-9.3,5.47-11.07,6.54-10,5.59-4.16,2.8,0,1.07,1.45-.67,1.25-.44,1.26-.32s.21.15,2.4-1c-.77.45-1.45.85-2.09,1.21s-1.24.66-1.84,1l-4,2.11c-.15.17,2.3-1.15,4.52-2.34,1.11-.57,2.14-1.17,2.77-1.53s.87-.45.36-.07c-1.5.88-3.13,1.72-4.76,2.61L678.36,502c.6-.2,3.37-1.64,5.94-3s4.86-2.72,4.69-2.45c-1.6,1.13-9,4.56-9.52,5.15-.1.11,3.09-1.57,4.69-2.41-9.78,5.27-15.07,8.37-6,3.88-3.12,1.65-7.58,3.87-10.86,5.65h0l6-3.11-5.62,2.95,1-.41c1.41-.71,2.83-1.43,4.29-2.2l-3.73,2c1-.42,2.08-.91,3.29-1.46,4.51-2.19,8.88-4.21,11.28-5.47,1.21-.64,2.43-1.26,3.63-1.92l3.56-2.06,7.12-4.12,7.12-4.14c2.36-1.4,4.64-2.93,7-4.4l6.93-4.44,3.47-2.23c1.15-.73,2.31-1.47,3.42-2.28Z"/><path class="cls-1" d="M969.1,343.21c.1,0,.28-.5.21.37-.28,2.72-1.06,4.81-1.41,7.52l.13.22c-.44,2.07-.87,4.23-1.44,6.41-.83,4-1.56,8.1-2.54,12.08.09-.09.15-.12.08.28-.37,1.66-1,4-1.59,6.32l-.26,1a.69.69,0,0,0,0,.41c-.31,1.06-.59,2-.84,2.88a324,324,0,0,1-11.07,35.84c-1,2.64-1.93,5.29-2.93,7.8-.73,1.88-1.75,3.92-2.72,6s-1.94,4.09-2.81,5.84c.79-.28-3.29,8.36-1.91,6.93-1.15,2.35-3.1,5.77-3,6a5.58,5.58,0,0,1-.51,2.47,46.11,46.11,0,0,1-3,6.55c-1.35,2.39-3.67,5.89-4.08,6.77-.65,1.38,2.11-2.87,1.46-1.48l3.94-6.51c1.29-2.17,2.46-4.39,3.69-6.58l1.82-3.3c.59-1.1,1.14-2.23,1.71-3.34l3.38-6.7c4.27-9.05,8.27-18.25,11.85-27.85.62-1.63,1.9-5.68,3.72-10.95.86-2.65,1.75-5.64,2.73-8.8.51-1.57,1-3.21,1.41-4.88s.92-3.36,1.38-5.07c1.81-6.83,3.44-13.87,4.65-20,.68-3,1.13-5.85,1.56-8.26s.79-4.44,1.05-5.93l.15-1.09c.45-3.26,1-6.86,1.38-10.36s.64-6.89.8-9.67c0-2.54.06-5.15.09-7.75-.19,1.18-.36,2.28-.52,3.25.2-2.62.42-5.24.36-6.25,0-5.6-.44-2.44-.92-.32-.24,1.53-.38-.56-.72,1.83.15-1.73.14-2.6.23-4.35a14.11,14.11,0,0,0-.15,2.45c0,1.22-.15,2.3-.23,1.69.19-1.66.12-3.55.21-5.28-.23.59-.32,6-.57,5.73.06-.93.52-4.86.27-5.21-.05-.07-.12,1.67-.16,2.54.12-5.35,0-8.3-.51-3.44.07-1.69.28-4.08.31-5.87v0l-.19,3.25c0-1,.09-2,.13-3l-.13.53c-.06.75-.12,1.51-.15,2.3,0-.67,0-1.34.08-2-.11.5-.21,1.08-.32,1.72-.26,2.39-.61,4.67-.66,6C971.76,322.41,970.73,332.88,969.1,343.21Z"/><path class="cls-1" d="M378.56,387.58c.05.12,1.22-1.55-.43,1.15-5.21,8.48-9.72,15.07-15.05,23.45l-.26.68c-4.23,6.41-8.83,12.94-13.66,19.49-4.38,6.08-9,11.93-13.79,17.62l-3.69,4.17-1.84,2.08-1.92,2-3.85,4-4,3.83c.32-.22.49-.31-.56.72-.86.86-1.85,1.71-2.89,2.62l-3.31,2.85c-.57.5-1.16,1-1.8,1.48l-1,.77-.22.16-.12.09-.05,0s0,0,0,0a3.4,3.4,0,0,0,.08-.63l0-1-.06-1.06c0-.7-.05-1.4-.15-2.09a7.73,7.73,0,0,0-.31-1.51,39.88,39.88,0,0,0-3.37-11.05,49.47,49.47,0,0,0-10.2-13.77,60.16,60.16,0,0,0-14-9.87,58,58,0,0,0-16.29-5.52,81.29,81.29,0,0,0-17.21-.85c-11.54.62-22.86,3.49-34,7.06s-22.14,8-33.53,11.74c-4.8,1.64-9.66,3.1-14.53,4.35-2.43.65-4.88,1.16-7.3,1.68s-4.87.9-7.29,1.18a91.87,91.87,0,0,1-11.41.75c-2-.07-4,0-6-.26-1-.1-2-.16-3-.29l-3-.47a30.18,30.18,0,0,1-3-.59c-1-.24-2-.42-3-.7-1.92-.61-3.85-1.11-5.67-1.84a80.33,80.33,0,0,1-10.16-4.75c.41.38-1.19-.32-3.68-1.65s-5.86-3.31-9.08-5.24-6.32-3.79-8.29-4.86-2.78-1.38-1.38-.38A128.43,128.43,0,0,0,70.73,426a78.23,78.23,0,0,0-8.27-3.21c-.54-.09-1.41-.23-2.75-.55s-3.16-.81-5.68-1.38c-1.26-.31-2.69-.66-4.33-1l-2.6-.55c-.92-.19-1.9-.34-2.93-.52A127.75,127.75,0,0,0,28.84,417a127.71,127.71,0,0,0-16.3-.12c-1.33,0-2.61.18-3.81.28s-2.33.19-3.33.34c-2,.27-3.55.49-4.39.64-2.68.5.49.07,3.58-.25,1.55-.2,3.11-.27,3.95-.31s1,0-.38.16a124.58,124.58,0,0,1,13.37-.58c2.22.1,4.45.08,6.66.3l3.32.25,3.31.38a123.88,123.88,0,0,1,25.78,6,124.42,124.42,0,0,1,23.79,11.4c7.56,4.63,15,9.85,23.2,14.07a68.78,68.78,0,0,0,26.71,7.65l1.74.14c.58,0,1.16,0,1.75.06,1.16,0,2.32.07,3.48.07,2.32-.08,4.64-.11,6.94-.34s4.6-.5,6.89-.78,4.56-.72,6.81-1.22a209.93,209.93,0,0,0,26.49-7.49c8.66-3,17.2-6.17,25.89-9,3.19-1,8.88-2.89,16.54-4.65a95.75,95.75,0,0,1,28.28-2.46l4.12.45,2.06.33,2.06.43a53.59,53.59,0,0,1,8.3,2.65,56.17,56.17,0,0,1,15.62,9.69,44.67,44.67,0,0,1,11.45,15.21,32.45,32.45,0,0,1,2.63,9.24,23.83,23.83,0,0,1,.21,2.39l.05,1.2,0,1.6a52.1,52.1,0,0,1-.66,5.2c-.26,1.8-.55,3.45-.83,5.18l.35-.24.4-.31.8-.63,1.62-1.26,3.23-2.51,3.11-2.43c.58-.46,1.18-.9,1.74-1.37,2.22-1.94,4.48-3.83,6.65-5.79s4.26-4,6.28-6,4-4.1,5.92-6.22a280.5,280.5,0,0,0,20.18-25.09c5.84-8.13,10.85-15.78,15.14-22.4s7.79-12.25,10.45-16.45l2.09-3.34c6.3-10,13.26-21.07,20.48-31.37a319.53,319.53,0,0,1,21.18-27.35,202.25,202.25,0,0,1,19.34-19.62c-.86.64-1.66,1.32-2.43,2l-2.29,2c-1.5,1.27-2.91,2.47-4.15,3.67,1.64-1.68,3.45-3.19,5.11-4.72l2.46-2.21,2.4-2c1.54-1.26,2.92-2.42,4.12-3.38l3-2.22,2.71-2c.8-.63,1.57-1.08,2.22-1.54l2.95-2c1.33-.94,1.48-1.12.9-.84s-1.9,1.05-3.5,2L454,302.94l-2.51,1.66c-2.3,1.57-2,1.2-2,1s-.07-.09-.59.23a31.28,31.28,0,0,0-3.24,2.3,141.41,141.41,0,0,1,12.92-9.1,20.07,20.07,0,0,0-2.28,1.4l-2.47,1.59c-.88.61-1.78,1.3-2.68,1.94-1.77,1.32-3.48,2.53-4.48,3.29s-1.35,1-.54.29c1.17-1,2.48-1.83,3.76-2.79s2.58-1.92,3.91-2.85l4.09-2.67c1.36-.89,2.71-1.78,4.11-2.52-.26.11-.74.36-1.41.71s-1.44.88-2.35,1.44l-3,1.89c-1.06.66-2.15,1.36-3.16,2.13l-5.47,3.95a11.92,11.92,0,0,1-2,1.53c.66-.53,1.82-1.56,3.35-2.6l5-3.53c3.5-2.28,6.81-4.34,7.25-4.81.09-.08-1.2.73-2.85,1.78l-2.6,1.67c-.88.56-1.71,1.1-2.34,1.58,1-.75,2-1.36,2.94-2l2.78-1.82c.9-.57,1.72-1.18,2.57-1.65l2.4-1.38,3.93-2.28L469.7,292c1.29-.68,1.52-.86.41-.4-.55.23-1.44.61-2.71,1.18s-2.8,1.47-4.78,2.53l4.44-2.46,5.06-2.38c.87-.4,1.72-.83,2.59-1.2l2.62-1,4.91-1.95-.05,0c-3.05,1.21-8.39,3.14-11.07,4.58,3.32-1.71,6.86-2.95,10.33-4.35l-1.86.62a80.82,80.82,0,0,0-7.87,3.26c1.13-.51,2.22-1.11,3.38-1.56l3.48-1.36-2.84,1c-.5.18-1,.34-1.54.55l-1.58.69-6,2.7-5.38,2.85c-1.72.87-3.22,1.84-4.6,2.69l-3.59,2.27c-16.06,10.95-29.8,24.91-41.85,39.94S388.65,371.41,378.56,387.58Z"/><path class="cls-1" d="M194.68,334.27c0-.11-1.49.66.72-.72,7-4.34,12.66-7.66,19.37-12.4.12-.16.26-.32.39-.48,5.26-3.55,10.62-7.42,16-11.45q14.73-11.42,28.41-23.8c-.27.17-.42.23.47-.6,3.79-3.43,9-8.18,14.33-13.26l2.3-2.27a5,5,0,0,0,.76-.91l6.47-6.24C296.56,249.33,308.87,236,321,222s23.87-29,35.58-44.95l7.24-10.19c2.39-3.38,4.66-6.81,6.95-10.11,6.85-9.77,15.25-22.47,21.44-32.32-1.27,1.3,13-23.16,9.61-18.6,3.85-6.71,9.65-16.78,9.74-17.41a41.59,41.59,0,0,1,2.72-6.62c.91-1.94,2.1-4.39,3.66-7.5l5.59-11.53c.88-1.81,1.95-3.82,3-5.91l3-6.23c1.94-4,3.61-7.4,4.17-8.7,1.78-4.09-4.8,9.24-3,5.15a766.8,766.8,0,0,1-42.56,77.4,737.38,737.38,0,0,1-51.43,72.19c-6.19,8.1-31.37,38.76-61.24,67.55a523.57,523.57,0,0,1-45.09,39.66c-7.18,5.59-14,10.49-19.86,14.55s-11,7.28-14.76,9.58c-.91.57-1.81,1.15-2.73,1.69-8.24,5-17.59,10.09-26.85,14.52a276.15,276.15,0,0,1-26.09,10.94c-7,2.55-14.25,4.85-21.57,6.74,1.73-.32,3.37-.73,4.94-1.08s3.06-.67,4.42-1c-7.42,2.08-15,3.7-17.85,4.31l-2.72.58-2.19.4c-1.28.24-2.22.42-2.88.56-1.31.28-1.48.38-.94.37s1.77-.13,3.28-.28,3.26-.34,4.83-.57c4.51-.71-1.49.77,5.56-.48-5.06,1-7.6,1.52-12.73,2.3a15.32,15.32,0,0,0,2.17-.29c1.39-.22,3.27-.51,5-.88l4.47-.85c1-.2,1.37-.26.51,0l-7.66,1.47-3.94.65c-1.31.23-2.61.43-3.9.57.91,0,5.34-.63,9.45-1.32l5.41-1a9.78,9.78,0,0,1,2.07-.35c-1.35.38-4.95,1-8.31,1.57s-6.53,1-7,1.19c-.19.09,4.93-.71,7.49-1.14-3.93.67-7.42,1.29-10.25,1.64l-3.67.53-2.45.3c-1.17.17-1.4.25-.42.23.49,0,1.28-.05,2.41-.12s2.57-.24,4.39-.42c-5,.73-12.2,1.1-17.56,1.4h0c2.68-.15,7.3-.29,9.76-.57-3,.31-6.08.41-9.12.59l1.6,0c2.27-.1,4.56-.15,6.93-.4-2,.21-4,.3-6.07.41,1.52,0,3.28,0,5.19-.08a176.38,176.38,0,0,0,18-1.82,227.33,227.33,0,0,0,45.59-12.87A288.47,288.47,0,0,0,194.68,334.27Z"/><path class="cls-1" d="M369.12,263c.06.09.73-.76-.14.67a68.94,68.94,0,0,1-4.24,6.05c-1.42,1.9-2.84,3.8-4.33,6l-.09.41c-2.42,3.28-4.89,6.73-7.66,10.07-4.89,6.31-9.59,12.72-14.75,18.72.18-.12.28-.16-.21.46-2.09,2.54-5,6-8.14,9.58l-1.38,1.56a2.56,2.56,0,0,0-.42.65l-3.93,4.25A504.12,504.12,0,0,1,272.25,372c-4.14,3.47-8.3,6.94-12.35,10.23-3,2.48-6.6,5-10.14,7.53s-7.06,5.12-10.17,7.24c1.3-.16-13.87,10.24-10.5,8.7-4.14,2.87-10.68,6.68-10.91,7a18.54,18.54,0,0,1-3.59,3c-1.13.83-2.59,1.85-4.48,3.11-1,.62-2,1.35-3.18,2.05l-4,2.32c-4.57,2.59-11.74,6.28-13.32,7.26-2.49,1.53,6.13-3,3.65-1.43l12.81-7c2.15-1.12,4.18-2.45,6.26-3.67l6.19-3.74,6.18-3.73c2-1.28,4-2.65,6-4l12-8,11.65-8.48c1.93-1.44,3.93-2.78,5.8-4.3l5.68-4.49q2.83-2.26,5.69-4.51c1.9-1.51,3.82-3,5.64-4.61l11.12-9.57,2.52-2.24,3.61-3.42,10.09-9.5c3.82-3.74,8-8.07,12.43-12.58,1.11-1.14,2.27-2.25,3.37-3.45l3.31-3.65,6.78-7.46c9-10.14,17.8-20.87,25-30.39l2.68-3.46,1.28-1.68,1.19-1.67,4.41-6.2c2.72-3.85,5.06-7,6.68-9.42.39-.59.76-1.18,1.14-1.77l5.39-8.28c.92-1.42,1.85-2.85,2.77-4.29l1.38-2.14,1.29-2.2c3.4-5.84,6.7-11.45,9.27-16.14l6.63-13.31-3.23,5.42c2.38-4.45,4.83-8.87,5.58-10.66,4.46-9.78,1.55-4.43-.59-.89-.73,1.3-.71,1-.79.92s-.23,0-1.41,2l1.07-2c.3-.61.57-1.18.85-1.74l1.83-3.77c0-.21-1.09,2.12-2.1,4.23-.49,1.06-1,2-1.35,2.62s-.48.77-.26.23c.82-1.4,1.53-2.95,2.27-4.51l2.2-4.64c-.35.48-1.63,3.08-2.82,5.49a24.65,24.65,0,0,1-2.37,4.3c.9-1.56,4.44-8.29,4.5-9,0-.14-1.46,2.87-2.19,4.37,4.41-9.31,6.64-14.53,2.28-6.2,1.43-2.93,3.54-7,5-10.15v0l-2.8,5.62q1.28-2.64,2.57-5.28l-.55.88c-.67,1.3-1.33,2.61-2,4l1.71-3.51c-.51.84-1.07,1.81-1.68,2.89-2.17,4.09-4.33,8-5.42,10.21-.57,1.13-1.1,2.28-1.69,3.4l-1.81,3.33-3.63,6.66-3.62,6.67c-1.23,2.21-2.58,4.35-3.86,6.53l-3.89,6.52-1.94,3.26c-.65,1.09-1.29,2.17-2,3.22Z"/></g></svg>